<svg id="svg" fill="#ffffff" stroke="#ffffff" width="320" height="320" version="1.1" viewBox="143 143 514 514" xmlns="http://www.w3.org/2000/svg" stroke-width="3">
    <g id="IconSvg_bgCarrier" stroke-width="0"></g>
    <g id="IconSvg_tracerCarrier" stroke-linecap="round" stroke-linejoin="round" stroke="#CCCCCC" stroke-width="16">
      <g xmlns="http://www.w3.org/2000/svg">
  <path d="m597.1 591.45h-10.902v-247.09c0-2.7812-2.2539-5.0391-5.0391-5.0391l-68.051 0.003907v-62.762c0-1.6719-0.83203-3.2383-2.2188-4.1758l-108.12-73.051c-1.707-1.1562-3.957-1.1523-5.6641 0.015624l-106.79 73.051c-1.3711 0.9375-2.1953 2.4961-2.1953 4.1562v62.766h-68.055c-2.7852 0-5.0391 2.2539-5.0391 5.0391v247.08h-10.898c-2.7852 0-5.0391 2.2539-5.0391 5.0391 0 2.7812 2.2539 5.0391 5.0391 5.0391h392.97c2.7852 0 5.0391-2.2539 5.0391-5.0391s-2.2539-5.0391-5.0391-5.0391zm-191.88-83.969h29.328v83.969h-29.328zm-10.078 83.969h-28.469l0.003906-83.969h28.469zm44.445-94.047h-77.949c-2.7852 0-5.0391 2.2539-5.0391 5.0391v89.004l-27.762 0.003906v-115.04h143.59v115.04h-27.797v-89.008c0-2.7812-2.2539-5.0391-5.0391-5.0391zm-214.48-109.16h42.434v78.09h-42.434zm52.512 0h41.145v78.09h-41.145zm51.223 0h41.145v78.09h-41.145zm247.29 78.09h-42.402v-78.09h42.402zm-52.477 0h-41.148v-78.09h41.145zm-51.223 0h-41.145v-78.09h41.145zm-51.223 0h-41.141v-78.09h41.141zm61.297 10.078h93.621v115.04h-93.621zm-189.34-127.01c2.7852 0 5.0391-2.2539 5.0391-5.0391v-65.141l101.77-69.617 103.07 69.637-0.003906 65.121c0 2.7812 2.2539 5.0391 5.0391 5.0391h68.055v28.766h-351.02v-28.766zm-68.055 127.01h93.656v115.04h-93.656z"></path>
  <path d="m400.61 344.68c24.031 0 43.578-19.551 43.578-43.582s-19.547-43.578-43.578-43.578-43.582 19.551-43.582 43.578c0 24.031 19.555 43.582 43.582 43.582zm0-77.086c18.469 0 33.5 15.027 33.5 33.504s-15.031 33.504-33.5 33.504c-18.477 0-33.504-15.031-33.504-33.504s15.031-33.504 33.504-33.504z"></path>
 </g>

      </g>
     <g id="IconSvg_iconCarrier">
      <g xmlns="http://www.w3.org/2000/svg">
  <path d="m597.1 591.45h-10.902v-247.09c0-2.7812-2.2539-5.0391-5.0391-5.0391l-68.051 0.003907v-62.762c0-1.6719-0.83203-3.2383-2.2188-4.1758l-108.12-73.051c-1.707-1.1562-3.957-1.1523-5.6641 0.015624l-106.79 73.051c-1.3711 0.9375-2.1953 2.4961-2.1953 4.1562v62.766h-68.055c-2.7852 0-5.0391 2.2539-5.0391 5.0391v247.08h-10.898c-2.7852 0-5.0391 2.2539-5.0391 5.0391 0 2.7812 2.2539 5.0391 5.0391 5.0391h392.97c2.7852 0 5.0391-2.2539 5.0391-5.0391s-2.2539-5.0391-5.0391-5.0391zm-191.88-83.969h29.328v83.969h-29.328zm-10.078 83.969h-28.469l0.003906-83.969h28.469zm44.445-94.047h-77.949c-2.7852 0-5.0391 2.2539-5.0391 5.0391v89.004l-27.762 0.003906v-115.04h143.59v115.04h-27.797v-89.008c0-2.7812-2.2539-5.0391-5.0391-5.0391zm-214.48-109.16h42.434v78.09h-42.434zm52.512 0h41.145v78.09h-41.145zm51.223 0h41.145v78.09h-41.145zm247.29 78.09h-42.402v-78.09h42.402zm-52.477 0h-41.148v-78.09h41.145zm-51.223 0h-41.145v-78.09h41.145zm-51.223 0h-41.141v-78.09h41.141zm61.297 10.078h93.621v115.04h-93.621zm-189.34-127.01c2.7852 0 5.0391-2.2539 5.0391-5.0391v-65.141l101.77-69.617 103.07 69.637-0.003906 65.121c0 2.7812 2.2539 5.0391 5.0391 5.0391h68.055v28.766h-351.02v-28.766zm-68.055 127.01h93.656v115.04h-93.656z"></path>
  <path d="m400.61 344.68c24.031 0 43.578-19.551 43.578-43.582s-19.547-43.578-43.578-43.578-43.582 19.551-43.582 43.578c0 24.031 19.555 43.582 43.582 43.582zm0-77.086c18.469 0 33.5 15.027 33.5 33.504s-15.031 33.504-33.5 33.504c-18.477 0-33.504-15.031-33.504-33.504s15.031-33.504 33.504-33.504z"></path>
 </g>

      </g>
      </svg>